<svg id="Layer_1" data-name="Layer 1" xmlns="http://www.w3.org/2000/svg" viewBox="0 0 900.35 1504.63"><defs><style>.cls-1,.cls-2{fill:#4d4d4f;}.cls-2{fill-rule:evenodd;}</style></defs><path class="cls-1" d="M288.26,114.13c11.11,0,20.17,9.8,20.17,21.94V245.74c0,12.11-9,21.94-20.17,21.94H46.4c-11.15,0-20.16-9.83-20.16-21.94V136c0-12.1,9-21.94,20.16-21.94ZM46.4,92.18C24.14,92.18,6.11,111.82,6.11,136V245.71c0,24.21,18,43.84,40.29,43.84H288.26c22.26,0,40.3-19.63,40.3-43.84V136c0-24.21-18-43.85-40.3-43.85Z" transform="translate(-6.11 -92.18)"/><path class="cls-1" d="M274.45,229.27a5.32,5.32,0,0,1,5.15-5.47h10.33a5.32,5.32,0,0,1,5.15,5.47v11a5.35,5.35,0,0,1-5.15,5.5H279.6a5.33,5.33,0,0,1-5.15-5.5Zm0-43.89a5.32,5.32,0,0,1,5.15-5.46h10.33a5.32,5.32,0,0,1,5.15,5.46v11a5.32,5.32,0,0,1-5.15,5.47H279.6a5.33,5.33,0,0,1-5.15-5.5Zm-103.21,0a5.31,5.31,0,0,1,5.14-5.46h10.34a5.31,5.31,0,0,1,5.14,5.46v11a5.31,5.31,0,0,1-5.14,5.47H176.38a5.32,5.32,0,0,1-5.14-5.5Zm41.29,0a5.32,5.32,0,0,1,5.15-5.46h31a5.31,5.31,0,0,1,5.14,5.46v11a5.31,5.31,0,0,1-5.14,5.47h-31a5.33,5.33,0,0,1-5.15-5.5Zm20.63,43.89a5.31,5.31,0,0,1,5.14-5.47h10.34a5.31,5.31,0,0,1,5.14,5.47v11a5.34,5.34,0,0,1-5.14,5.5H238.3a5.32,5.32,0,0,1-5.14-5.5ZM129.94,185.38a5.32,5.32,0,0,1,5.15-5.46h10.33a5.31,5.31,0,0,1,5.15,5.46v11a5.31,5.31,0,0,1-5.15,5.47H135.13a5.33,5.33,0,0,1-5.15-5.5Zm-41.29,0a5.32,5.32,0,0,1,5.15-5.46h10.33a5.32,5.32,0,0,1,5.15,5.46v11a5.32,5.32,0,0,1-5.15,5.47H93.84a5.33,5.33,0,0,1-5.15-5.5Zm-41.25,0a5.31,5.31,0,0,1,5.15-5.46H62.88A5.32,5.32,0,0,1,68,185.38v11a5.32,5.32,0,0,1-5.15,5.47H52.55a5.32,5.32,0,0,1-5.15-5.5Zm227.05-43.84a5.32,5.32,0,0,1,5.15-5.47h10.33a5.32,5.32,0,0,1,5.15,5.47v11a5.32,5.32,0,0,1-5.15,5.46H279.6a5.32,5.32,0,0,1-5.15-5.46Zm-41.29,0a5.31,5.31,0,0,1,5.14-5.47h10.34a5.31,5.31,0,0,1,5.14,5.47v11a5.31,5.31,0,0,1-5.14,5.46H238.3a5.31,5.31,0,0,1-5.14-5.46Zm-41.3,0a5.32,5.32,0,0,1,5.15-5.47h10.33a5.32,5.32,0,0,1,5.15,5.47v11a5.32,5.32,0,0,1-5.15,5.46H197.05a5.32,5.32,0,0,1-5.15-5.46Zm-41.25,0a5.32,5.32,0,0,1,5.15-5.47h10.33a5.32,5.32,0,0,1,5.15,5.47v11a5.32,5.32,0,0,1-5.15,5.46H155.76a5.32,5.32,0,0,1-5.15-5.46Zm-41.29,0a5.31,5.31,0,0,1,5.14-5.47H124.8a5.31,5.31,0,0,1,5.14,5.47v11A5.31,5.31,0,0,1,124.8,158H114.46a5.31,5.31,0,0,1-5.14-5.46Zm-61.92,0a5.31,5.31,0,0,1,5.15-5.47h31a5.31,5.31,0,0,1,5.15,5.47v11A5.31,5.31,0,0,1,83.5,158H52.55a5.31,5.31,0,0,1-5.15-5.46Zm0,87.73a5.31,5.31,0,0,1,5.15-5.47H62.88A5.32,5.32,0,0,1,68,229.27v11a5.35,5.35,0,0,1-5.15,5.5H52.55a5.32,5.32,0,0,1-5.15-5.5Zm41.29,0a5.32,5.32,0,0,1,5.15-5.47H207.38a5.32,5.32,0,0,1,5.15,5.47v11a5.35,5.35,0,0,1-5.15,5.5H93.84a5.33,5.33,0,0,1-5.15-5.5Z" transform="translate(-6.11 -92.18)"/><path class="cls-1" d="M832.14,422a2.94,2.94,0,0,0-3,0L776.4,452.43a4.84,4.84,0,0,0-1.71,5.79,3.86,3.86,0,0,0,1.88,2.2l52.8,26.09a2.84,2.84,0,0,0,2.63,0l40.9-20.2v50.95c-3.87,0-7,3.91-7,8.7v17.4H887V526c0-4.79-3.16-8.7-7-8.7V462.8l4.83-2.38c1.81-.89,2.66-3.45,2-5.65a4.12,4.12,0,0,0-1.77-2.31Zm-1.49,55.77-43.92-21.69,43.92-25.35,43.92,25.35Z" transform="translate(-6.11 -92.18)"/><path class="cls-1" d="M803.73,482.71c-1.81-.85-3.83.29-4.54,2.53a.88.88,0,0,0-.07.32l-3.52,14.76c-.49,2.17.39,4.44,2.06,5.26l31.67,15.66a2.9,2.9,0,0,0,2.63,0l31.67-15.66a4.67,4.67,0,0,0,2.06-5.26l-3.52-14.76c-.53-2.31-2.48-3.63-4.36-2.95l-.25.1-26.91,12.47Zm-.46,16.3,1.56-6.5,24.61,11.4a2.77,2.77,0,0,0,2.48,0l24.61-11.4,1.56,6.5-27.41,13.53L803.27,499Z" transform="translate(-6.11 -92.18)"/><path class="cls-1" d="M93.7,647.6a3.08,3.08,0,0,1,4.37-.11l.1.11h0l19,19.81a3.39,3.39,0,0,1,0,4.68h0l-63.48,66a3.52,3.52,0,0,1-1.06.71L20.92,752.05a3.13,3.13,0,0,1-4.09-1.74s0-.07,0-.11a3.25,3.25,0,0,1,0-2.45l12.71-33a2.82,2.82,0,0,1,.71-1.1Zm-6,15.55,14.55,15.12,8.2-8.52L95.94,654.62ZM97.82,683,83.26,667.83,42,710.76v1.91h3.16A3.26,3.26,0,0,1,48.33,716h0v3.3h3.16a3.25,3.25,0,0,1,3.16,3.3h0v3.3h1.84Zm-62,34.15-.67.71L25.5,743.07,49.75,733l.67-.71a3.33,3.33,0,0,1-2.06-3.09v-3.3H45.2a3.24,3.24,0,0,1-3.16-3.3v-3.3H38.88a3.24,3.24,0,0,1-3-2.17Z" transform="translate(-6.11 -92.18)"/><path class="cls-1" d="M751.67,636.77a9.06,9.06,0,1,0-18.11,0V740.45a9.51,9.51,0,0,0,4.58,8.16l63.41,37.71a8.89,8.89,0,0,0,12.29-3.8,9.59,9.59,0,0,0-3.3-12.53l-58.87-35V636.77Z" transform="translate(-6.11 -92.18)"/><path class="cls-1" d="M751.67,872.38c80.06,0,145-67.53,145-150.79s-64.91-150.78-145-150.78-145,67.53-145,150.78S671.61,872.38,751.67,872.38ZM878.53,721.59c0,72.86-56.77,131.94-126.82,131.94S624.88,794.45,624.88,721.59s56.78-131.93,126.83-131.93S878.53,648.74,878.53,721.59Z" transform="translate(-6.11 -92.18)"/><path class="cls-1" d="M6.55,854.65c0-24.08,18.75-43.59,41.89-43.59H216.11c23.13,0,41.89,19.51,41.89,43.59v261.58c0,24.08-18.76,43.59-41.89,43.59H48.44c-23.14,0-41.89-19.51-41.89-43.59Zm41.89,10.88v43.59A10.69,10.69,0,0,0,58.9,920H205.6a10.69,10.69,0,0,0,10.46-10.89V865.53a10.68,10.68,0,0,0-10.46-10.88H59a10.72,10.72,0,0,0-10.51,10.88Zm0,87.18v21.82A10.68,10.68,0,0,0,58.9,985.41h21a10.68,10.68,0,0,0,10.46-10.88V952.71a10.66,10.66,0,0,0-10.46-10.89h-21a10.71,10.71,0,0,0-10.46,10.89ZM59,1007.23a10.68,10.68,0,0,0-10.46,10.89v21.81A10.68,10.68,0,0,0,59,1050.82h21a10.68,10.68,0,0,0,10.46-10.89v-21.81a10.65,10.65,0,0,0-10.46-10.89Zm-10.51,76.29v21.82a10.69,10.69,0,0,0,10.46,10.89h21a10.68,10.68,0,0,0,10.46-10.89v-21.82a10.65,10.65,0,0,0-10.46-10.88h-21a10.71,10.71,0,0,0-10.46,10.88Zm73.37-141.7a10.69,10.69,0,0,0-10.46,10.89v21.82a10.68,10.68,0,0,0,10.46,10.88h21a10.68,10.68,0,0,0,10.46-10.88V952.71a10.69,10.69,0,0,0-10.46-10.89Zm-10.46,76.3v21.81a10.68,10.68,0,0,0,10.46,10.89h21a10.68,10.68,0,0,0,10.46-10.89v-21.81a10.68,10.68,0,0,0-10.46-10.89h-21a10.69,10.69,0,0,0-10.46,10.89Zm10.46,54.52a10.69,10.69,0,0,0-10.46,10.88v21.82a10.69,10.69,0,0,0,10.46,10.89h21a10.68,10.68,0,0,0,10.46-10.89v-21.82a10.68,10.68,0,0,0-10.46-10.88Zm52.4-119.88v21.81a10.69,10.69,0,0,0,10.47,10.89h21a10.69,10.69,0,0,0,10.46-10.89V952.76a10.69,10.69,0,0,0-10.46-10.89h-21a10.63,10.63,0,0,0-10.47,10.89Zm10.47,54.47a10.69,10.69,0,0,0-10.47,10.89v87.18a10.69,10.69,0,0,0,10.47,10.88h21a10.69,10.69,0,0,0,10.46-10.88v-87.18a10.69,10.69,0,0,0-10.46-10.89Z" transform="translate(-6.11 -92.18)"/><path class="cls-1" d="M840.27,1478.3a6.89,6.89,0,0,1,0,9.48h0l-38.59,40.16a6.25,6.25,0,0,1-8.84.25l-.25-.25h0l-19.32-20.1a6.89,6.89,0,0,1,0-9.48,6.29,6.29,0,0,1,8.88-.25l.25.25,14.73,15.34,34-35.43A6.24,6.24,0,0,1,840,1478a1.58,1.58,0,0,1,.25.28Z" transform="translate(-6.11 -92.18)"/><path class="cls-1" d="M745.65,1382.65a6.56,6.56,0,0,1,6.43,6.68V1396H855v-6.71a6.43,6.43,0,1,1,12.85,0V1396h12.85c14.2,0,25.74,12,25.74,26.77v147.24c0,14.77-11.5,26.77-25.74,26.77H726.3c-14.2,0-25.74-12-25.74-26.77V1422.81c0-14.77,11.5-26.77,25.74-26.77h12.85v-6.71A6.67,6.67,0,0,1,745.65,1382.65Zm-32.17,53.54v133.86a13.14,13.14,0,0,0,12.86,13.38H880.75a13.13,13.13,0,0,0,12.85-13.38V1436.19Z" transform="translate(-6.11 -92.18)"/><path class="cls-2" d="M121.38,1418.32a4.12,4.12,0,0,1,4.08-4.22H198.7a4.23,4.23,0,0,1,0,8.45H125.42A4.1,4.1,0,0,1,121.38,1418.32Zm0-33.83a4.14,4.14,0,0,1,4.08-4.23H198.7a4.23,4.23,0,0,1,0,8.45H125.42a4.14,4.14,0,0,1-4-4.22Zm0-33.87a4.14,4.14,0,0,1,4.08-4.23H198.7a4.23,4.23,0,0,1,0,8.45H125.42a4.12,4.12,0,0,1-4-4.22ZM112,1339.15a4.35,4.35,0,0,1,0,6h0l-12.22,12.71a3.93,3.93,0,0,1-5.57.18,1,1,0,0,1-.18-.18h0L90,1353.63a4.35,4.35,0,0,1,0-6,4,4,0,0,1,5.61-.14.61.61,0,0,1,.14.14h0l1.21,1.25,9.34-9.73a3.94,3.94,0,0,1,5.61-.14l.14.14Zm0,33.87a4.35,4.35,0,0,1,0,6h0l-12.22,12.71a3.93,3.93,0,0,1-5.57.18,1,1,0,0,1-.18-.18h0L90,1387.5a4.35,4.35,0,0,1,0-6,4,4,0,0,1,5.61-.14.61.61,0,0,1,.14.14l1.21,1.25,9.34-9.7a4,4,0,0,1,5.61-.14s.07,0,.14.11Zm0,33.83a4.35,4.35,0,0,1,0,6h0l-12.22,12.72a3.94,3.94,0,0,1-5.57.17c-.07,0-.11-.1-.18-.17h0L90,1421.34a4.35,4.35,0,0,1,0-6,3.94,3.94,0,0,1,5.61-.14.37.37,0,0,1,.14.14l1.21,1.24,9.3-9.69a3.94,3.94,0,0,1,5.61-.14l.18.1Z" transform="translate(-6.11 -92.18)"/></svg>