<svg id="Layer_1" data-name="Layer 1" xmlns="http://www.w3.org/2000/svg" viewBox="0 0 1916.44 3477.4"><defs><style>.cls-1,.cls-2{fill:#4d4d4f;}.cls-2{fill-rule:evenodd;}</style></defs><path class="cls-1" d="M801.92,61.77c31.35,0,56.76,27.65,56.76,61.77V432.39c0,34.11-25.41,61.77-56.76,61.77H120.74C89.39,494.16,64,466.5,64,432.39V123.54c0-34.12,25.42-61.77,56.77-61.77ZM120.74,0C58,0,7.21,55.31,7.21,123.54V432.39c0,68.22,50.83,123.53,113.53,123.53H801.92c62.7,0,113.53-55.31,113.53-123.53V123.54C915.45,55.31,864.62,0,801.92,0Z"/><path class="cls-1" d="M763,386.06c0-8.53,6.5-15.44,14.53-15.44H806.6c8,0,14.53,6.91,14.53,15.44v30.88c0,8.53-6.5,15.45-14.53,15.45H777.54c-8,0-14.53-6.92-14.53-15.45Zm0-123.54c0-8.53,6.5-15.44,14.53-15.44H806.6c8,0,14.53,6.91,14.53,15.44V293.4c0,8.53-6.5,15.45-14.53,15.45H777.54c-8,0-14.53-6.92-14.53-15.45Zm-290.7,0c0-8.53,6.51-15.44,14.54-15.44h29.07c8,0,14.53,6.91,14.53,15.44V293.4c0,8.53-6.5,15.45-14.53,15.45H486.85c-8,0-14.54-6.92-14.54-15.45Zm116.28,0c0-8.53,6.51-15.44,14.54-15.44h87.2c8,0,14.54,6.91,14.54,15.44V293.4c0,8.53-6.51,15.45-14.54,15.45h-87.2c-8,0-14.54-6.92-14.54-15.45Zm58.14,123.54c0-8.53,6.51-15.44,14.53-15.44h29.07c8,0,14.54,6.91,14.54,15.44v30.88c0,8.53-6.51,15.45-14.54,15.45H661.26c-8,0-14.53-6.92-14.53-15.45ZM356,262.52c0-8.53,6.51-15.44,14.53-15.44H399.6c8,0,14.54,6.91,14.54,15.44V293.4c0,8.53-6.51,15.45-14.54,15.45h-29c-8,0-14.53-6.92-14.53-15.45Zm-116.28,0c0-8.53,6.51-15.44,14.54-15.44h29.07c8,0,14.53,6.91,14.53,15.44V293.4c0,8.53-6.51,15.45-14.53,15.45h-29c-8,0-14.54-6.92-14.54-15.45Zm-116.27,0c0-8.53,6.5-15.44,14.53-15.44h29.07c8,0,14.53,6.91,14.53,15.44V293.4c0,8.53-6.5,15.45-14.53,15.45H138c-8,0-14.53-6.92-14.53-15.45ZM763,139c0-8.53,6.5-15.44,14.53-15.44H806.6c8,0,14.53,6.91,14.53,15.44v30.89c0,8.52-6.5,15.44-14.53,15.44H777.54c-8,0-14.53-6.92-14.53-15.44Zm-116.28,0c0-8.53,6.51-15.44,14.53-15.44h29.07c8,0,14.54,6.91,14.54,15.44v30.89c0,8.52-6.51,15.44-14.54,15.44H661.26c-8,0-14.53-6.92-14.53-15.44Zm-116.28,0c0-8.53,6.51-15.44,14.54-15.44h29.07c8,0,14.53,6.91,14.53,15.44v30.89c0,8.52-6.51,15.44-14.53,15.44H545c-8,0-14.54-6.92-14.54-15.44Zm-116.27,0c0-8.53,6.5-15.44,14.53-15.44h29.07c8,0,14.53,6.91,14.53,15.44v30.89c0,8.52-6.5,15.44-14.53,15.44H428.71c-8,0-14.53-6.92-14.53-15.44ZM297.9,139c0-8.53,6.51-15.44,14.53-15.44H341.5c8,0,14.54,6.91,14.54,15.44v30.89c0,8.52-6.51,15.44-14.54,15.44H312.43c-8,0-14.53-6.92-14.53-15.44Zm-174.41,0c0-8.53,6.5-15.44,14.53-15.44h87.21c8,0,14.53,6.91,14.53,15.44v30.89c0,8.52-6.51,15.44-14.53,15.44H138c-8,0-14.53-6.92-14.53-15.44Zm0,247.08c0-8.53,6.5-15.44,14.53-15.44h29.07c8,0,14.53,6.91,14.53,15.44V417c0,8.53-6.5,15.45-14.53,15.45H138c-8,0-14.53-6.92-14.53-15.45Zm116.27,0c0-8.53,6.51-15.44,14.54-15.44H574.06c8,0,14.53,6.91,14.53,15.44V417c0,8.53-6.51,15.45-14.53,15.45H254.3c-8,0-14.54-6.92-14.54-15.45Z"/><path class="cls-1" d="M1762,495.14a8.25,8.25,0,0,0-8.37,0L1605,580.88c-5,2.86-7.1,10.15-4.79,16.28a11.11,11.11,0,0,0,5.29,6.18l148.67,73.49a8.11,8.11,0,0,0,7.37,0l115.25-56.93V763.45c-10.94,0-19.82,11-19.82,24.5v49h59.47V788c0-13.53-8.88-24.5-19.82-24.5V610.08l13.6-6.74c5.07-2.52,7.54-9.65,5.49-15.93a11.47,11.47,0,0,0-5-6.53Zm-4.18,157.1-123.74-61.12,123.74-71.36,123.73,71.36Z"/><path class="cls-1" d="M1682,666.25c-5.12-2.38-10.84.81-12.77,7.14-.08.29-.16.58-.23.87l-9.91,41.64c-1.44,6.06,1.08,12.48,5.82,14.82l89.21,44.1a8.18,8.18,0,0,0,7.37,0l89.21-44.1c4.74-2.34,7.26-8.76,5.82-14.82l-9.91-41.64c-1.54-6.49-7-10.21-12.3-8.3-.24.09-.47.18-.7.29l-75.8,35.13Zm-1.35,45.88,4.37-18.32,69.3,32.11a8.1,8.1,0,0,0,7,0l69.31-32.11,4.36,18.32-77.15,38.09-77.16-38.11Z"/><path class="cls-1" d="M268,1370a8.7,8.7,0,0,1,12.3-.34l.34.34h0l53.63,55.79a9.57,9.57,0,0,1,0,13.15h0l-178.76,186a8.68,8.68,0,0,1-3,2l-89.39,37.2a8.83,8.83,0,0,1-11.49-4.86l-.12-.32a9.58,9.58,0,0,1,0-6.91l35.75-93a9.26,9.26,0,0,1,2-3.12Zm-16.79,43.77,41,42.64,23.11-24-41-42.64Zm28.35,55.79-41-42.64-116.17,120.9v5.45h8.93a9.12,9.12,0,0,1,8.94,9.3h0v9.3h8.94a9.12,9.12,0,0,1,8.94,9.3h0v9.29h5.24Zm-174.49,96.23-1.89,2-27.32,71.06,68.31-28.42,1.89-2a9.28,9.28,0,0,1-5.81-8.7v-9.3h-8.94a9.12,9.12,0,0,1-8.93-9.29v-9.3h-8.94a9,9,0,0,1-8.36-6Z"/><path class="cls-1" d="M1422.72,1080.39c0-14.66-11.42-26.55-25.52-26.55s-25.51,11.89-25.51,26.55v292a26.75,26.75,0,0,0,12.86,23l178.62,106.18c12.4,7,27.88,2.16,34.58-10.74,6.48-12.46,2.4-28-9.27-35.35L1422.72,1357Z"/><path class="cls-1" d="M1422.72,1744c225.49,0,408.28-190.15,408.28-424.71s-182.79-424.72-408.28-424.72-408.28,190.15-408.28,424.72S1197.23,1744,1422.72,1744ZM1780,1319.29c0,205.24-159.94,371.62-357.24,371.62s-357.24-166.38-357.24-371.62,159.94-371.63,357.24-371.63S1780,1114.05,1780,1319.29Z"/><path class="cls-1" d="M0,2114.4c0-51.09,39.82-92.52,88.94-92.52H444.71c49.12,0,88.94,41.43,88.94,92.52v555.13c0,51.1-39.82,92.53-88.94,92.53H88.94c-49.12,0-88.94-41.43-88.94-92.53Zm88.94,23.13v92.53c0,12.77,10,23.13,22.24,23.13H422.47c12.28,0,22.24-10.36,22.24-23.13v-92.53c0-12.77-10-23.13-22.24-23.13H111.18c-12.28,0-22.24,10.36-22.24,23.13Zm0,185v46.26c0,12.77,10,23.13,22.24,23.13h44.47c12.28,0,22.23-10.36,22.23-23.13v-46.26c0-12.78-9.95-23.13-22.23-23.13H111.18c-12.28,0-22.24,10.4-22.24,23.18Zm22.24,115.65c-12.28,0-22.24,10.36-22.24,23.13v46.26c0,12.78,10,23.13,22.24,23.13h44.47c12.28,0,22.23-10.35,22.23-23.13v-46.26c0-12.77-9.95-23.13-22.23-23.13ZM88.94,2600.09v46.26c0,12.78,10,23.13,22.24,23.13h44.47c12.28,0,22.23-10.35,22.23-23.13v-46.26c0-12.77-9.95-23.13-22.23-23.13H111.18c-12.28,0-22.24,10.41-22.24,23.18ZM244.59,2299.4c-12.28,0-22.24,10.35-22.24,23.13v46.26c0,12.77,10,23.13,22.24,23.13h44.47c12.28,0,22.24-10.36,22.24-23.13v-46.26c0-12.78-10-23.13-22.24-23.13Zm-22.24,161.91v46.26c0,12.78,10,23.13,22.24,23.13h44.47c12.28,0,22.24-10.35,22.24-23.13v-46.26c0-12.77-10-23.13-22.24-23.13H244.59c-12.28.05-22.24,10.41-22.24,23.18ZM244.59,2577c-12.28,0-22.24,10.36-22.24,23.13v46.26c0,12.78,10,23.13,22.24,23.13h44.47c12.28,0,22.24-10.35,22.24-23.13v-46.26c0-12.77-10-23.13-22.24-23.13Zm111.18-254.43v46.26c0,12.77,10,23.13,22.23,23.13h44.47c12.28,0,22.24-10.36,22.24-23.13v-46.26c0-12.78-10-23.13-22.24-23.13H378c-12.28,0-22.23,10.36-22.23,23.14ZM378,2438.23c-12.28,0-22.23,10.36-22.23,23.13v185c0,12.78,10,23.13,22.23,23.13h44.47c12.28,0,22.24-10.35,22.24-23.13v-185c0-12.77-10-23.13-22.24-23.13Z"/><path class="cls-1" d="M1579.31,3143.59a19.39,19.39,0,0,1,0,26.66h0l-108.72,113.1a17.64,17.64,0,0,1-24.94.69c-.23-.22-.47-.45-.69-.69h0l-54.36-56.55a19.42,19.42,0,0,1,0-26.69,17.65,17.65,0,0,1,25-.71c.24.23.48.47.71.71l41.53,43.24,95.89-99.79a17.64,17.64,0,0,1,24.94-.69c.23.22.47.45.69.69Z"/><path class="cls-1" d="M1312.8,2874.2c10,0,18.12,8.43,18.12,18.84v18.85h289.92V2893c0-10.41,8.11-18.84,18.12-18.84s18.12,8.43,18.12,18.84v18.85h36.24c40,0,72.48,33.76,72.48,75.4V3402c0,41.64-32.45,75.4-72.48,75.4H1258.44c-40,0-72.48-33.76-72.48-75.4V2987.29c0-41.64,32.45-75.4,72.48-75.4h36.24V2893C1294.68,2882.63,1302.79,2874.2,1312.8,2874.2ZM1222.2,3025v377c0,20.82,16.23,37.7,36.24,37.7h434.88c20,0,36.24-16.88,36.24-37.7V3025Z"/><path class="cls-2" d="M286.76,3304.23a11.69,11.69,0,0,1,11.46-11.92H504.49a11.93,11.93,0,0,1,0,23.84H298.22A11.71,11.71,0,0,1,286.76,3304.23Zm0-95.37a11.71,11.71,0,0,1,11.46-11.92H504.49a11.93,11.93,0,0,1,0,23.84H298.22a11.71,11.71,0,0,1-11.46-11.92Zm0-95.37a11.71,11.71,0,0,1,11.46-11.92H504.49a11.93,11.93,0,0,1,0,23.84H298.22a11.69,11.69,0,0,1-11.46-11.92Zm-26.27-32.28a12.28,12.28,0,0,1,0,16.86h0l-34.38,35.76a11.14,11.14,0,0,1-15.75.45l-.45-.45h0l-11.46-11.92a12.26,12.26,0,0,1,0-16.88,11.16,11.16,0,0,1,15.78-.44c.15.14.3.29.44.44h0l3.35,3.51,26.26-27.35a11.14,11.14,0,0,1,15.76-.45q.24.23.45.45Zm0,95.37a12.28,12.28,0,0,1,0,16.86h0l-34.38,35.76a11.14,11.14,0,0,1-15.75.45c-.15-.14-.3-.3-.45-.45h0l-11.46-11.92a12.26,12.26,0,0,1,0-16.88,11.16,11.16,0,0,1,15.78-.44c.15.14.3.29.44.44l3.35,3.5,26.26-27.34a11.14,11.14,0,0,1,15.76-.45q.24.22.45.45Zm0,95.37a12.24,12.24,0,0,1,0,16.85h0l-34.38,35.76a11.14,11.14,0,0,1-15.75.45l-.45-.45h0l-11.46-11.92a12.26,12.26,0,0,1,0-16.88,11.16,11.16,0,0,1,15.78-.44c.15.14.3.29.44.44l3.35,3.5L244.26,3272a11.14,11.14,0,0,1,15.76-.45c.16.15.3.3.45.45Z"/></svg>