<svg id="Layer_1" data-name="Layer 1" xmlns="http://www.w3.org/2000/svg" viewBox="0 0 1112.29 1850.46"><defs><style>.cls-1,.cls-2{fill:#fff;}.cls-2{fill-rule:evenodd;}</style></defs><path class="cls-1" d="M425.76,108.46c14.17,0,25.66,12,25.66,26.86V269.57c0,14.83-11.49,26.85-25.66,26.85h-308c-14.18,0-25.67-12-25.67-26.85V135.32c0-14.83,11.49-26.86,25.67-26.86Zm-308-26.85c-28.35,0-51.34,24-51.34,53.71V269.57c0,29.66,23,53.7,51.34,53.7h308c28.35,0,51.33-24,51.33-53.7V135.32c0-29.66-23-53.71-51.33-53.71Z" transform="translate(15.37 -81.61)"/><path class="cls-1" d="M408.16,249.43a6.64,6.64,0,0,1,6.57-6.71h13.15a6.64,6.64,0,0,1,6.57,6.71v13.43a6.64,6.64,0,0,1-6.57,6.71H414.73a6.64,6.64,0,0,1-6.57-6.71Zm0-53.7a6.64,6.64,0,0,1,6.57-6.71h13.15a6.64,6.64,0,0,1,6.57,6.71v13.43a6.64,6.64,0,0,1-6.57,6.71H414.73a6.64,6.64,0,0,1-6.57-6.71Zm-131.45,0a6.64,6.64,0,0,1,6.57-6.71h13.15a6.64,6.64,0,0,1,6.57,6.71v13.43a6.64,6.64,0,0,1-6.57,6.71H283.28a6.64,6.64,0,0,1-6.57-6.71Zm52.58,0a6.64,6.64,0,0,1,6.57-6.71H375.3a6.64,6.64,0,0,1,6.57,6.71v13.43a6.64,6.64,0,0,1-6.57,6.71H335.86a6.64,6.64,0,0,1-6.57-6.71Zm26.29,53.7a6.64,6.64,0,0,1,6.57-6.71H375.3a6.64,6.64,0,0,1,6.57,6.71v13.43a6.64,6.64,0,0,1-6.57,6.71H362.15a6.64,6.64,0,0,1-6.57-6.71Zm-131.45-53.7A6.64,6.64,0,0,1,230.7,189h13.15a6.64,6.64,0,0,1,6.57,6.71v13.43a6.64,6.64,0,0,1-6.57,6.71H230.7a6.64,6.64,0,0,1-6.57-6.71Zm-52.58,0a6.65,6.65,0,0,1,6.58-6.71h13.14a6.64,6.64,0,0,1,6.57,6.71v13.43a6.64,6.64,0,0,1-6.57,6.71H178.13a6.65,6.65,0,0,1-6.58-6.71Zm-52.58,0a6.65,6.65,0,0,1,6.58-6.71h13.14a6.64,6.64,0,0,1,6.57,6.71v13.43a6.64,6.64,0,0,1-6.57,6.71H125.55a6.65,6.65,0,0,1-6.58-6.71ZM408.16,142a6.64,6.64,0,0,1,6.57-6.71h13.15a6.64,6.64,0,0,1,6.57,6.71v13.42a6.65,6.65,0,0,1-6.57,6.72H414.73a6.65,6.65,0,0,1-6.57-6.72Zm-52.58,0a6.64,6.64,0,0,1,6.57-6.71H375.3a6.64,6.64,0,0,1,6.57,6.71v13.42a6.65,6.65,0,0,1-6.57,6.72H362.15a6.65,6.65,0,0,1-6.57-6.72ZM303,142a6.64,6.64,0,0,1,6.57-6.71h13.15a6.64,6.64,0,0,1,6.57,6.71v13.42a6.65,6.65,0,0,1-6.57,6.72H309.57a6.65,6.65,0,0,1-6.57-6.72Zm-52.58,0a6.64,6.64,0,0,1,6.57-6.71h13.15a6.64,6.64,0,0,1,6.57,6.71v13.42a6.65,6.65,0,0,1-6.57,6.72H257a6.65,6.65,0,0,1-6.57-6.72Zm-52.58,0a6.64,6.64,0,0,1,6.57-6.71h13.15a6.64,6.64,0,0,1,6.57,6.71v13.42a6.65,6.65,0,0,1-6.57,6.72H204.41a6.65,6.65,0,0,1-6.57-6.72ZM119,142a6.65,6.65,0,0,1,6.58-6.71H165a6.64,6.64,0,0,1,6.57,6.71v13.42a6.65,6.65,0,0,1-6.57,6.72H125.55a6.65,6.65,0,0,1-6.58-6.72Zm0,107.4a6.65,6.65,0,0,1,6.58-6.71h13.14a6.64,6.64,0,0,1,6.57,6.71v13.43a6.64,6.64,0,0,1-6.57,6.71H125.55a6.65,6.65,0,0,1-6.58-6.71Zm52.58,0a6.65,6.65,0,0,1,6.58-6.71H322.72a6.64,6.64,0,0,1,6.57,6.71v13.43a6.64,6.64,0,0,1-6.57,6.71H178.13a6.65,6.65,0,0,1-6.58-6.71Z" transform="translate(15.37 -81.61)"/><path class="cls-1" d="M948,269.75a6.46,6.46,0,0,0-6.37,0L828.36,332.53c-3.78,2.09-5.41,7.43-3.65,11.92a8.29,8.29,0,0,0,4,4.53L942,402.79a6.44,6.44,0,0,0,5.62,0l87.79-41.69V466.21c-8.34,0-15.1,8-15.1,17.94V520h45.29V484.15c0-9.91-6.76-17.94-15.09-17.94V353.91l10.35-4.93c3.87-1.85,5.75-7.07,4.19-11.67a8.46,8.46,0,0,0-3.81-4.78Zm-3.19,115L850.54,340l94.25-52.25L1039,340Z" transform="translate(15.37 -81.61)"/><path class="cls-1" d="M887.05,395c-3.9-1.75-8.25.59-9.72,5.23q-.11.32-.18.63l-7.55,30.5c-1.1,4.43.82,9.13,4.44,10.85L942,474.53a6.44,6.44,0,0,0,5.62,0l67.95-32.28c3.61-1.72,5.53-6.42,4.44-10.85l-7.55-30.5c-1.18-4.75-5.38-7.47-9.38-6.07-.18.06-.35.13-.53.21l-57.74,25.72Zm-1,33.59,3.32-13.41,52.78,23.51a6.41,6.41,0,0,0,5.32,0l52.79-23.51,3.32,13.41-58.77,27.9L886,428.62Z" transform="translate(15.37 -81.61)"/><path class="cls-1" d="M254.58,500.51a8.62,8.62,0,0,1,12.19,0h0l51.69,51.69a8.62,8.62,0,0,1,0,12.19h0L146.17,736.71a8.61,8.61,0,0,1-2.9,1.89L57.12,773.06a8.62,8.62,0,0,1-11.2-11.2l34.46-86.15a8.59,8.59,0,0,1,1.9-2.89ZM238.4,541.07l39.51,39.51,22.28-22.28-39.51-39.51Zm27.33,51.69-39.51-39.51-112,112v5h8.62a8.61,8.61,0,0,1,8.61,8.61v8.62h8.62a8.61,8.61,0,0,1,8.61,8.62v8.61h5ZM97.55,681.93l-1.83,1.83L69.39,749.59l65.84-26.32,1.82-1.83a8.63,8.63,0,0,1-5.6-8.06v-8.62h-8.61a8.62,8.62,0,0,1-8.62-8.61v-8.62h-8.61A8.6,8.6,0,0,1,97.55,681.93Z" transform="translate(15.37 -81.61)"/><path class="cls-1" d="M838.51,716.58a16.15,16.15,0,1,0-32.3,0V894.24a16.12,16.12,0,0,0,8.14,14l113,64.6a16.15,16.15,0,0,0,16-28l-104.91-60Z" transform="translate(15.37 -81.61)"/><path class="cls-1" d="M838.51,1120.35c142.71,0,258.41-115.69,258.41-258.41S981.22,603.53,838.51,603.53,580.09,719.22,580.09,861.94,695.79,1120.35,838.51,1120.35Zm226.11-258.41c0,124.88-101.24,226.11-226.11,226.11S612.4,986.82,612.4,861.94,713.63,635.83,838.51,635.83,1064.62,737.06,1064.62,861.94Z" transform="translate(15.37 -81.61)"/><path class="cls-1" d="M-15.37,1173.18A49.16,49.16,0,0,1,33.79,1124H230.44a49.16,49.16,0,0,1,49.16,49.16v295a49.16,49.16,0,0,1-49.16,49.16H33.79a49.16,49.16,0,0,1-49.16-49.16Zm49.16,12.29v49.16a12.29,12.29,0,0,0,12.29,12.29H218.15a12.29,12.29,0,0,0,12.29-12.29v-49.16a12.29,12.29,0,0,0-12.29-12.29H46.08A12.29,12.29,0,0,0,33.79,1185.47Zm0,98.32v24.58a12.3,12.3,0,0,0,12.29,12.3H70.67A12.3,12.3,0,0,0,83,1308.37v-24.58a12.3,12.3,0,0,0-12.29-12.29H46.08A12.3,12.3,0,0,0,33.79,1283.79Zm12.29,61.46a12.29,12.29,0,0,0-12.29,12.29v24.58a12.29,12.29,0,0,0,12.29,12.29H70.67A12.29,12.29,0,0,0,83,1382.12v-24.58a12.29,12.29,0,0,0-12.29-12.29Zm-12.29,86v24.58a12.29,12.29,0,0,0,12.29,12.29H70.67A12.29,12.29,0,0,0,83,1455.86v-24.58A12.29,12.29,0,0,0,70.67,1419H46.08A12.29,12.29,0,0,0,33.79,1431.28Zm86-159.78a12.29,12.29,0,0,0-12.29,12.29v24.58a12.3,12.3,0,0,0,12.29,12.3h24.58a12.3,12.3,0,0,0,12.29-12.3v-24.58a12.29,12.29,0,0,0-12.29-12.29Zm-12.29,86v24.58a12.29,12.29,0,0,0,12.29,12.29h24.58a12.29,12.29,0,0,0,12.29-12.29v-24.58a12.29,12.29,0,0,0-12.29-12.29H119.83A12.29,12.29,0,0,0,107.54,1357.54ZM119.83,1419a12.29,12.29,0,0,0-12.29,12.29v24.58a12.29,12.29,0,0,0,12.29,12.29h24.58a12.29,12.29,0,0,0,12.29-12.29v-24.58A12.29,12.29,0,0,0,144.41,1419Zm61.45-135.2v24.58a12.3,12.3,0,0,0,12.29,12.3h24.58a12.3,12.3,0,0,0,12.29-12.3v-24.58a12.29,12.29,0,0,0-12.29-12.29H193.57A12.29,12.29,0,0,0,181.28,1283.79Zm12.29,61.46a12.29,12.29,0,0,0-12.29,12.29v98.32a12.29,12.29,0,0,0,12.29,12.29h24.58a12.29,12.29,0,0,0,12.29-12.29v-98.32a12.29,12.29,0,0,0-12.29-12.29Z" transform="translate(15.37 -81.61)"/><path class="cls-1" d="M990.79,1749.47a10.31,10.31,0,0,1,0,14.58l0,0-61.87,61.87a10.31,10.31,0,0,1-14.59,0l0,0L883.38,1795a10.32,10.32,0,0,1,14.6-14.6l23.64,23.65,54.57-54.59a10.31,10.31,0,0,1,14.58,0Z" transform="translate(15.37 -81.61)"/><path class="cls-1" d="M839.12,1602.09a10.31,10.31,0,0,1,10.31,10.32v10.31h165v-10.31a10.32,10.32,0,1,1,20.63,0v10.31h20.62a41.25,41.25,0,0,1,41.25,41.25v226.86a41.25,41.25,0,0,1-41.25,41.25H808.18a41.24,41.24,0,0,1-41.24-41.25V1664a41.24,41.24,0,0,1,41.24-41.25h20.63v-10.31A10.32,10.32,0,0,1,839.12,1602.09Zm-51.56,82.5v206.24a20.62,20.62,0,0,0,20.62,20.62h247.49a20.62,20.62,0,0,0,20.62-20.62V1684.59Z" transform="translate(15.37 -81.61)"/><path class="cls-2" d="M164.15,1821.74a7.81,7.81,0,0,1,7.8-7.81H312.49a7.81,7.81,0,1,1,0,15.62H172A7.81,7.81,0,0,1,164.15,1821.74Zm0-62.46a7.8,7.8,0,0,1,7.8-7.81H312.49a7.81,7.81,0,1,1,0,15.61H172A7.8,7.8,0,0,1,164.15,1759.28Zm0-62.47a7.8,7.8,0,0,1,7.8-7.8H312.49a7.81,7.81,0,1,1,0,15.61H172A7.8,7.8,0,0,1,164.15,1696.81Zm-17.9-21.14a7.8,7.8,0,0,1,0,11v0l-23.42,23.42a7.82,7.82,0,0,1-11,0h0l-7.81-7.81a7.82,7.82,0,0,1,11.06-11h0l2.28,2.29,17.89-17.91a7.82,7.82,0,0,1,11.05,0Zm0,62.46a7.8,7.8,0,0,1,0,11v0l-23.42,23.42a7.82,7.82,0,0,1-11,0v0L104,1764.8a7.82,7.82,0,0,1,11.06-11l2.28,2.29,17.89-17.91a7.82,7.82,0,0,1,11.05,0Zm0,62.47a7.8,7.8,0,0,1,0,11h0l-23.42,23.43a7.83,7.83,0,0,1-11,0h0l-7.81-7.81A7.82,7.82,0,0,1,115,1816.21l2.28,2.3,17.89-17.91a7.82,7.82,0,0,1,11.05,0Z" transform="translate(15.37 -81.61)"/></svg>