<svg id="Layer_1" data-name="Layer 1" xmlns="http://www.w3.org/2000/svg" viewBox="0 0 1916.4 3477.38"><defs><style>.cls-1,.cls-2{fill:#fff;}.cls-2{fill-rule:evenodd;}</style></defs><path class="cls-1" d="M874.92,278.77c31.35,0,56.76,27.65,56.76,61.77V649.39c0,34.11-25.41,61.77-56.76,61.77H193.74c-31.35,0-56.77-27.66-56.77-61.77V340.54c0-34.12,25.42-61.77,56.77-61.77ZM193.74,217C131,217,80.21,272.31,80.21,340.54V649.39c0,68.22,50.83,123.53,113.53,123.53H874.92c62.7,0,113.53-55.31,113.53-123.53V340.54c0-68.23-50.83-123.54-113.53-123.54Z" transform="translate(-73 -217)"/><path class="cls-1" d="M836,603.06c0-8.53,6.5-15.44,14.53-15.44h29.07c8,0,14.53,6.91,14.53,15.44v30.88c0,8.53-6.5,15.45-14.53,15.45H850.54c-8,0-14.53-6.92-14.53-15.45Zm0-123.54c0-8.53,6.5-15.44,14.53-15.44h29.07c8,0,14.53,6.91,14.53,15.44V510.4c0,8.53-6.5,15.45-14.53,15.45H850.54c-8,0-14.53-6.92-14.53-15.45Zm-290.7,0c0-8.53,6.51-15.44,14.54-15.44h29.07c8,0,14.53,6.91,14.53,15.44V510.4c0,8.53-6.5,15.45-14.53,15.45H559.85c-8,0-14.54-6.92-14.54-15.45Zm116.28,0c0-8.53,6.51-15.44,14.54-15.44h87.2c8,0,14.54,6.91,14.54,15.44V510.4c0,8.53-6.51,15.45-14.54,15.45h-87.2c-8,0-14.54-6.92-14.54-15.45Zm58.14,123.54c0-8.53,6.51-15.44,14.53-15.44h29.07c8,0,14.54,6.91,14.54,15.44v30.88c0,8.53-6.51,15.45-14.54,15.45H734.26c-8,0-14.53-6.92-14.53-15.45ZM429,479.52c0-8.53,6.51-15.44,14.53-15.44h29.07c8,0,14.54,6.91,14.54,15.44V510.4c0,8.53-6.51,15.45-14.54,15.45H443.57c-8,0-14.53-6.92-14.53-15.45Zm-116.28,0c0-8.53,6.51-15.44,14.54-15.44h29.07c8,0,14.53,6.91,14.53,15.44V510.4c0,8.53-6.51,15.45-14.53,15.45H327.3c-8,0-14.54-6.92-14.54-15.45Zm-116.27,0c0-8.53,6.5-15.44,14.53-15.44h29.07c8,0,14.53,6.91,14.53,15.44V510.4c0,8.53-6.5,15.45-14.53,15.45H211c-8,0-14.53-6.92-14.53-15.45ZM836,356c0-8.53,6.5-15.44,14.53-15.44h29.07c8,0,14.53,6.91,14.53,15.44v30.89c0,8.52-6.5,15.44-14.53,15.44H850.54c-8,0-14.53-6.92-14.53-15.44Zm-116.28,0c0-8.53,6.51-15.44,14.53-15.44h29.07c8,0,14.54,6.91,14.54,15.44v30.89c0,8.52-6.51,15.44-14.54,15.44H734.26c-8,0-14.53-6.92-14.53-15.44Zm-116.28,0c0-8.53,6.51-15.44,14.54-15.44h29.07c8,0,14.53,6.91,14.53,15.44v30.89c0,8.52-6.51,15.44-14.53,15.44H618c-8,0-14.54-6.92-14.54-15.44Zm-116.27,0c0-8.53,6.5-15.44,14.53-15.44h29.07c8,0,14.53,6.91,14.53,15.44v30.89c0,8.52-6.5,15.44-14.53,15.44H501.71c-8,0-14.53-6.92-14.53-15.44ZM370.9,356c0-8.53,6.51-15.44,14.53-15.44H414.5c8,0,14.54,6.91,14.54,15.44v30.89c0,8.52-6.51,15.44-14.54,15.44H385.43c-8,0-14.53-6.92-14.53-15.44Zm-174.41,0c0-8.53,6.5-15.44,14.53-15.44h87.21c8,0,14.53,6.91,14.53,15.44v30.89c0,8.52-6.51,15.44-14.53,15.44H211c-8,0-14.53-6.92-14.53-15.44Zm0,247.08c0-8.53,6.5-15.44,14.53-15.44h29.07c8,0,14.53,6.91,14.53,15.44v30.88c0,8.53-6.5,15.45-14.53,15.45H211c-8,0-14.53-6.92-14.53-15.45Zm116.27,0c0-8.53,6.51-15.44,14.54-15.44H647.06c8,0,14.53,6.91,14.53,15.44v30.88c0,8.53-6.51,15.45-14.53,15.45H327.3c-8,0-14.54-6.92-14.54-15.45Z" transform="translate(-73 -217)"/><path class="cls-1" d="M1835,712.14a8.25,8.25,0,0,0-8.37,0L1678,797.88c-5,2.86-7.1,10.15-4.79,16.28a11.09,11.09,0,0,0,5.29,6.18l148.67,73.49a8.11,8.11,0,0,0,7.37,0l115.25-56.93V980.45c-10.94,0-19.82,11-19.82,24.5v49h59.47v-49c0-13.53-8.88-24.5-19.82-24.5V827.08l13.6-6.74c5.07-2.52,7.54-9.65,5.49-15.93a11.49,11.49,0,0,0-5-6.53Zm-4.18,157.1-123.74-61.12,123.74-71.36,123.73,71.36Z" transform="translate(-73 -217)"/><path class="cls-1" d="M1755,883.25c-5.12-2.38-10.84.81-12.77,7.14-.08.29-.16.58-.23.87l-9.91,41.64c-1.44,6.06,1.08,12.48,5.82,14.82l89.21,44.1a8.18,8.18,0,0,0,7.37,0l89.21-44.1c4.74-2.34,7.26-8.76,5.82-14.82l-9.91-41.64c-1.54-6.49-7-10.21-12.3-8.3-.24.09-.47.18-.7.29l-75.8,35.13Zm-1.35,45.88,4.37-18.32,69.3,32.11a8.1,8.1,0,0,0,7,0l69.31-32.11,4.36,18.32-77.15,38.09-77.16-38.11Z" transform="translate(-73 -217)"/><path class="cls-1" d="M341,1587a8.7,8.7,0,0,1,12.64,0v0l53.63,55.79a9.57,9.57,0,0,1,0,13.15h0l-178.76,186a8.84,8.84,0,0,1-3,2l-89.39,37.2a8.82,8.82,0,0,1-11.61-5.18,9.58,9.58,0,0,1,0-6.91l35.75-93a9.21,9.21,0,0,1,2-3.12Zm-16.79,43.77,41,42.64,23.11-24-41-42.64Zm28.35,55.79-41-42.64L195.39,1764.82v5.45h8.93a9.12,9.12,0,0,1,8.94,9.3v9.3h8.94a9.12,9.12,0,0,1,8.94,9.3v9.29h5.24Zm-174.49,96.23-1.89,2-27.32,71.06,68.31-28.42,1.89-2a9.29,9.29,0,0,1-5.81-8.7v-9.3h-8.94a9.12,9.12,0,0,1-8.93-9.29v-9.3h-8.94A9,9,0,0,1,178.08,1782.82Z" transform="translate(-73 -217)"/><path class="cls-1" d="M1495.72,1297.39c0-14.66-11.42-26.55-25.52-26.55s-25.51,11.89-25.51,26.55v292a26.76,26.76,0,0,0,12.86,23l178.62,106.18c12.4,7,27.88,2.16,34.58-10.74,6.48-12.46,2.4-28-9.27-35.35L1495.72,1574Z" transform="translate(-73 -217)"/><path class="cls-1" d="M1495.72,1961c225.49,0,408.28-190.15,408.28-424.71s-182.79-424.72-408.28-424.72-408.28,190.15-408.28,424.72S1270.23,1961,1495.72,1961ZM1853,1536.29c0,205.24-159.94,371.62-357.24,371.62s-357.24-166.38-357.24-371.62,159.94-371.63,357.24-371.63S1853,1331.05,1853,1536.29Z" transform="translate(-73 -217)"/><path class="cls-1" d="M73,2331.4c0-51.09,39.82-92.52,88.94-92.52H517.71c49.12,0,88.94,41.43,88.94,92.52v555.13c0,51.1-39.82,92.53-88.94,92.53H161.94c-49.12,0-88.94-41.43-88.94-92.53Zm88.94,23.13v92.53c0,12.77,10,23.13,22.24,23.13H495.47c12.28,0,22.24-10.36,22.24-23.13v-92.53c0-12.77-10-23.13-22.24-23.13H184.18C171.9,2331.4,161.94,2341.76,161.94,2354.53Zm0,185v46.26c0,12.77,10,23.13,22.24,23.13h44.47c12.28,0,22.23-10.36,22.23-23.13v-46.26c0-12.78-9.95-23.13-22.23-23.13H184.18C171.9,2516.45,161.94,2526.8,161.94,2539.58Zm22.24,115.65c-12.28,0-22.24,10.36-22.24,23.13v46.26c0,12.78,10,23.13,22.24,23.13h44.47c12.28,0,22.23-10.35,22.23-23.13v-46.26c0-12.77-9.95-23.13-22.23-23.13Zm-22.24,161.91v46.26c0,12.78,10,23.13,22.24,23.13h44.47c12.28,0,22.23-10.35,22.23-23.13v-46.26c0-12.77-9.95-23.13-22.23-23.13H184.18C171.9,2794,161.94,2804.37,161.94,2817.14Zm155.65-300.69c-12.28,0-22.24,10.35-22.24,23.13v46.26c0,12.77,10,23.13,22.24,23.13h44.47c12.28,0,22.24-10.36,22.24-23.13v-46.26c0-12.78-10-23.13-22.24-23.13Zm-22.24,161.91v46.26c0,12.78,10,23.13,22.24,23.13h44.47c12.28,0,22.24-10.35,22.24-23.13v-46.26c0-12.77-10-23.13-22.24-23.13H317.59C305.31,2655.23,295.35,2665.59,295.35,2678.36ZM317.59,2794c-12.28,0-22.24,10.36-22.24,23.13v46.26c0,12.78,10,23.13,22.24,23.13h44.47c12.28,0,22.24-10.35,22.24-23.13v-46.26c0-12.77-10-23.13-22.24-23.13Zm111.18-254.43v46.26c0,12.77,10,23.13,22.23,23.13h44.47c12.28,0,22.24-10.36,22.24-23.13v-46.26c0-12.78-10-23.13-22.24-23.13H451C438.72,2516.45,428.77,2526.8,428.77,2539.58ZM451,2655.23c-12.28,0-22.23,10.36-22.23,23.13v185c0,12.78,10,23.13,22.23,23.13h44.47c12.28,0,22.24-10.35,22.24-23.13v-185c0-12.77-10-23.13-22.24-23.13Z" transform="translate(-73 -217)"/><path class="cls-1" d="M1652.31,3360.59a19.39,19.39,0,0,1,0,26.66l0,0-108.72,113.1a17.64,17.64,0,0,1-25.63,0l0,0-54.36-56.55a19.42,19.42,0,0,1,0-26.69,17.65,17.65,0,0,1,25.66,0l41.53,43.24,95.89-99.79a17.64,17.64,0,0,1,25.63,0Z" transform="translate(-73 -217)"/><path class="cls-1" d="M1385.8,3091.2c10,0,18.12,8.43,18.12,18.84v18.85h289.92V3110c0-10.41,8.11-18.84,18.12-18.84s18.12,8.43,18.12,18.84v18.85h36.24c40,0,72.48,33.76,72.48,75.4V3619c0,41.64-32.45,75.4-72.48,75.4H1331.44c-40,0-72.48-33.76-72.48-75.4V3204.29c0-41.64,32.45-75.4,72.48-75.4h36.24V3110C1367.68,3099.63,1375.79,3091.2,1385.8,3091.2ZM1295.2,3242v377c0,20.82,16.23,37.7,36.24,37.7h434.88c20,0,36.24-16.88,36.24-37.7V3242Z" transform="translate(-73 -217)"/><path class="cls-2" d="M359.76,3521.23a11.69,11.69,0,0,1,11.46-11.92H577.49a11.93,11.93,0,0,1,0,23.84H371.22A11.7,11.7,0,0,1,359.76,3521.23Zm0-95.37a11.7,11.7,0,0,1,11.46-11.92H577.49a11.93,11.93,0,0,1,0,23.84H371.22A11.7,11.7,0,0,1,359.76,3425.86Zm0-95.37a11.7,11.7,0,0,1,11.46-11.92H577.49a11.93,11.93,0,0,1,0,23.84H371.22A11.69,11.69,0,0,1,359.76,3330.49Zm-26.27-32.28a12.27,12.27,0,0,1,0,16.86l0,0-34.38,35.76a11.14,11.14,0,0,1-16.2,0l0,0-11.46-11.92a12.26,12.26,0,0,1,0-16.88,11.16,11.16,0,0,1,16.22,0h0l3.35,3.51,26.26-27.35a11.15,11.15,0,0,1,16.21,0Zm0,95.37a12.27,12.27,0,0,1,0,16.86l0,0-34.38,35.76a11.14,11.14,0,0,1-16.2,0l0,0-11.46-11.92a12.26,12.26,0,0,1,0-16.88,11.16,11.16,0,0,1,16.22,0l3.35,3.5,26.26-27.34a11.15,11.15,0,0,1,16.21,0Zm0,95.37a12.25,12.25,0,0,1,0,16.85l0,0-34.38,35.76a11.14,11.14,0,0,1-16.2,0l0,0-11.46-11.92a12.26,12.26,0,0,1,0-16.88,11.16,11.16,0,0,1,16.22,0l3.35,3.5L317.26,3489a11.15,11.15,0,0,1,16.21,0Z" transform="translate(-73 -217)"/></svg>