<svg id="Layer_1" data-name="Layer 1" xmlns="http://www.w3.org/2000/svg" viewBox="0 0 1228.01 1767"><defs><style>.cls-1,.cls-2{fill:#fff;}.cls-2{fill-rule:evenodd;}</style></defs><path class="cls-1" d="M507.59,35.13c17.32,0,31.36,15.28,31.36,34.13V239.9c0,18.85-14,34.12-31.36,34.12H131.23c-17.32,0-31.36-15.27-31.36-34.12V69.26c0-18.85,14-34.13,31.36-34.13ZM131.23,1C96.59,1,68.51,31.56,68.51,69.26V239.9c0,37.69,28.08,68.25,62.72,68.25H507.59c34.64,0,62.72-30.56,62.72-68.25V69.26C570.31,31.56,542.23,1,507.59,1Z" transform="translate(-68.51 -1)"/><path class="cls-1" d="M486.09,214.3a8.29,8.29,0,0,1,8-8.53h16.06a8.29,8.29,0,0,1,8,8.53v17.06a8.29,8.29,0,0,1-8,8.54H494.12a8.29,8.29,0,0,1-8-8.54Zm0-68.26a8.29,8.29,0,0,1,8-8.53h16.06a8.29,8.29,0,0,1,8,8.53v17.07a8.29,8.29,0,0,1-8,8.53H494.12a8.29,8.29,0,0,1-8-8.53Zm-160.61,0a8.3,8.3,0,0,1,8-8.53h16.06a8.29,8.29,0,0,1,8,8.53v17.07a8.29,8.29,0,0,1-8,8.53H333.51a8.3,8.3,0,0,1-8-8.53Zm64.24,0a8.3,8.3,0,0,1,8-8.53h48.19a8.3,8.3,0,0,1,8,8.53v17.07a8.3,8.3,0,0,1-8,8.53H397.75a8.3,8.3,0,0,1-8-8.53Zm32.13,68.26a8.29,8.29,0,0,1,8-8.53h16.06a8.3,8.3,0,0,1,8,8.53v17.06a8.3,8.3,0,0,1-8,8.54H429.88a8.29,8.29,0,0,1-8-8.54ZM261.24,146a8.29,8.29,0,0,1,8-8.53h16.06a8.3,8.3,0,0,1,8,8.53v17.07a8.3,8.3,0,0,1-8,8.53H269.27a8.29,8.29,0,0,1-8-8.53ZM197,146a8.3,8.3,0,0,1,8-8.53h16.06a8.29,8.29,0,0,1,8,8.53v17.07a8.29,8.29,0,0,1-8,8.53H205a8.3,8.3,0,0,1-8-8.53Zm-64.24,0a8.29,8.29,0,0,1,8-8.53h16.06a8.29,8.29,0,0,1,8,8.53v17.07a8.29,8.29,0,0,1-8,8.53H140.78a8.29,8.29,0,0,1-8-8.53ZM486.09,77.79a8.29,8.29,0,0,1,8-8.53h16.06a8.29,8.29,0,0,1,8,8.53V94.85a8.29,8.29,0,0,1-8,8.53H494.12a8.29,8.29,0,0,1-8-8.53Zm-64.24,0a8.29,8.29,0,0,1,8-8.53h16.06a8.3,8.3,0,0,1,8,8.53V94.85a8.3,8.3,0,0,1-8,8.53H429.88a8.29,8.29,0,0,1-8-8.53Zm-64.25,0a8.3,8.3,0,0,1,8-8.53h16.06a8.29,8.29,0,0,1,8,8.53V94.85a8.29,8.29,0,0,1-8,8.53H365.63a8.3,8.3,0,0,1-8-8.53Zm-64.24,0a8.29,8.29,0,0,1,8-8.53h16.06a8.3,8.3,0,0,1,8,8.53V94.85a8.3,8.3,0,0,1-8,8.53H301.39a8.29,8.29,0,0,1-8-8.53Zm-64.25,0a8.3,8.3,0,0,1,8-8.53h16.07a8.3,8.3,0,0,1,8,8.53V94.85a8.3,8.3,0,0,1-8,8.53H237.14a8.3,8.3,0,0,1-8-8.53Zm-96.36,0a8.29,8.29,0,0,1,8-8.53H189a8.29,8.29,0,0,1,8,8.53V94.85a8.29,8.29,0,0,1-8,8.53H140.78a8.29,8.29,0,0,1-8-8.53Zm0,136.51a8.29,8.29,0,0,1,8-8.53h16.06a8.29,8.29,0,0,1,8,8.53v17.06a8.29,8.29,0,0,1-8,8.54H140.78a8.29,8.29,0,0,1-8-8.54Zm64.24,0a8.3,8.3,0,0,1,8-8.53H381.69a8.29,8.29,0,0,1,8,8.53v17.06a8.29,8.29,0,0,1-8,8.54H205a8.3,8.3,0,0,1-8-8.54Z" transform="translate(-68.51 -1)"/><path class="cls-1" d="M1188.73,131.12a5.76,5.76,0,0,0-5.84,0L1079.1,191c-3.47,2-5,7.08-3.35,11.36a7.82,7.82,0,0,0,3.69,4.32L1183.23,258a5.7,5.7,0,0,0,5.15,0l80.46-39.74V318.43c-7.64,0-13.84,7.66-13.84,17.1v34.21h41.52V335.53c0-9.44-6.2-17.1-13.84-17.1V211.36l9.49-4.7c3.55-1.76,5.27-6.74,3.84-11.12a8.05,8.05,0,0,0-3.49-4.56Zm-2.92,109.67-86.38-42.66,86.38-49.82,86.38,49.82Z" transform="translate(-68.51 -1)"/><path class="cls-1" d="M1132.89,250.58c-3.58-1.67-7.57.56-8.92,5-.06.2-.11.4-.16.61l-6.92,29.07c-1,4.23.76,8.71,4.07,10.35l62.27,30.78a5.7,5.7,0,0,0,5.15,0l62.27-30.78c3.32-1.64,5.08-6.12,4.07-10.35l-6.92-29.07c-1.07-4.53-4.92-7.13-8.59-5.8a5,5,0,0,0-.48.21l-52.92,24.52Zm-.94,32,3-12.8,48.38,22.42a5.69,5.69,0,0,0,4.87,0l48.38-22.42,3.05,12.8-53.86,26.59L1132,282.59Z" transform="translate(-68.51 -1)"/><path class="cls-1" d="M334,477.14a7.68,7.68,0,0,1,11.17,0v0l47.38,49.28a8.44,8.44,0,0,1,0,11.61v0L234.62,702.32a7.82,7.82,0,0,1-2.65,1.81L153,737a7.81,7.81,0,0,1-10.27-4.58,8.55,8.55,0,0,1,0-6.1l31.59-82.14a8.26,8.26,0,0,1,1.73-2.76Zm-14.83,38.67,36.22,37.66,20.41-21.24-36.21-37.67Zm25.05,49.28L308,527.42,205.34,634.2V639h7.9a8.06,8.06,0,0,1,7.89,8.22v8.21H229a8.06,8.06,0,0,1,7.9,8.21v8.22h4.62Zm-154.14,85-1.68,1.74-24.13,62.77,60.34-25.1,1.68-1.74a8.22,8.22,0,0,1-5.14-7.69v-8.21h-7.89a8.07,8.07,0,0,1-7.9-8.22v-8.21h-7.89A7.9,7.9,0,0,1,190.06,650.1Z" transform="translate(-68.51 -1)"/><path class="cls-1" d="M1058.34,612.14c0-8.5-6.63-15.4-14.8-15.4s-14.81,6.9-14.81,15.4V781.52a15.54,15.54,0,0,0,7.46,13.37l103.62,61.59a14.51,14.51,0,0,0,20.06-6.23,15.73,15.73,0,0,0-5.38-20.5l-96.15-57.16Z" transform="translate(-68.51 -1)"/><path class="cls-1" d="M1058.34,997.1c130.8,0,236.84-110.31,236.84-246.38s-106-246.37-236.84-246.37S821.5,614.66,821.5,750.72,927.54,997.1,1058.34,997.1Zm207.23-246.38c0,119.06-92.78,215.58-207.23,215.58S851.1,869.78,851.1,750.72s92.79-215.57,207.24-215.57S1265.57,631.67,1265.57,750.72Z" transform="translate(-68.51 -1)"/><path class="cls-1" d="M86.57,1047.46c0-25.88,20.17-46.87,45.06-46.87H311.86c24.88,0,45.06,21,45.06,46.87v281.23c0,25.89-20.18,46.87-45.06,46.87H131.63c-24.89,0-45.06-21-45.06-46.87Zm45.06,11.72v46.87a11.5,11.5,0,0,0,11.26,11.72h157.7a11.51,11.51,0,0,0,11.27-11.72v-46.87a11.51,11.51,0,0,0-11.27-11.72H142.89A11.5,11.5,0,0,0,131.63,1059.18Zm0,93.74v23.44a11.5,11.5,0,0,0,11.26,11.72h22.53a11.51,11.51,0,0,0,11.27-11.72v-23.44a11.5,11.5,0,0,0-11.27-11.71H142.89A11.49,11.49,0,0,0,131.63,1152.92Zm11.26,58.59a11.5,11.5,0,0,0-11.26,11.72v23.44a11.49,11.49,0,0,0,11.26,11.71h22.53a11.5,11.5,0,0,0,11.27-11.71v-23.44a11.51,11.51,0,0,0-11.27-11.72Zm-11.26,82V1317a11.5,11.5,0,0,0,11.26,11.72h22.53A11.51,11.51,0,0,0,176.69,1317v-23.43a11.51,11.51,0,0,0-11.27-11.72H142.89A11.5,11.5,0,0,0,131.63,1293.54Zm78.85-152.33a11.5,11.5,0,0,0-11.27,11.71v23.44a11.51,11.51,0,0,0,11.27,11.72H233a11.5,11.5,0,0,0,11.26-11.72v-23.44A11.49,11.49,0,0,0,233,1141.21Zm-11.27,82v23.44a11.5,11.5,0,0,0,11.27,11.71H233a11.49,11.49,0,0,0,11.26-11.71v-23.44A11.5,11.5,0,0,0,233,1211.51H210.48A11.51,11.51,0,0,0,199.21,1223.23Zm11.27,58.59a11.51,11.51,0,0,0-11.27,11.72V1317a11.51,11.51,0,0,0,11.27,11.72H233A11.5,11.5,0,0,0,244.27,1317v-23.43A11.5,11.5,0,0,0,233,1281.82Zm56.32-128.9v23.44a11.5,11.5,0,0,0,11.26,11.72h22.53a11.51,11.51,0,0,0,11.27-11.72v-23.44a11.5,11.5,0,0,0-11.27-11.71H278.06A11.49,11.49,0,0,0,266.8,1152.92Zm11.26,58.59a11.5,11.5,0,0,0-11.26,11.72V1317a11.5,11.5,0,0,0,11.26,11.72h22.53A11.51,11.51,0,0,0,311.86,1317v-93.74a11.51,11.51,0,0,0-11.27-11.72Z" transform="translate(-68.51 -1)"/><path class="cls-1" d="M1144.34,1523.41a14.21,14.21,0,0,1,0,19.53l0,0-79.67,82.87a12.92,12.92,0,0,1-18.77,0l0,0L1006,1584.4a14.22,14.22,0,0,1,0-19.55,12.92,12.92,0,0,1,18.8,0l30.43,31.68,70.27-73.12a12.93,12.93,0,0,1,18.78,0Z" transform="translate(-68.51 -1)"/><path class="cls-1" d="M949.05,1326a13.55,13.55,0,0,1,13.28,13.81v13.82h212.45v-13.82a13.29,13.29,0,1,1,26.55,0v13.82h26.56c29.33,0,53.11,24.73,53.11,55.24v303.88c0,30.51-23.78,55.25-53.11,55.25H909.21c-29.33,0-53.11-24.74-53.11-55.25V1408.87c0-30.51,23.78-55.24,53.11-55.24h26.56v-13.82A13.55,13.55,0,0,1,949.05,1326Zm-66.39,110.5v276.25c0,15.26,11.89,27.63,26.55,27.63h318.68c14.66,0,26.55-12.37,26.55-27.63V1436.5Z" transform="translate(-68.51 -1)"/><path class="cls-2" d="M251.1,1665.8a7.3,7.3,0,0,1,7.15-7.44H387.06a7.45,7.45,0,0,1,0,14.89H258.25A7.3,7.3,0,0,1,251.1,1665.8Zm0-59.55a7.3,7.3,0,0,1,7.15-7.44H387.06a7.45,7.45,0,0,1,0,14.89H258.25A7.31,7.31,0,0,1,251.1,1606.25Zm0-59.55a7.3,7.3,0,0,1,7.15-7.44H387.06a7.45,7.45,0,0,1,0,14.88H258.25A7.3,7.3,0,0,1,251.1,1546.7Zm-16.41-20.16a7.66,7.66,0,0,1,0,10.53h0l-21.46,22.33a7,7,0,0,1-10.12,0l0,0-7.15-7.44a7.66,7.66,0,0,1,0-10.54,7,7,0,0,1,10.13,0h0l2.09,2.19,16.4-17.08a7,7,0,0,1,10.12,0Zm0,59.55a7.66,7.66,0,0,1,0,10.53h0L213.23,1619a7,7,0,0,1-10.12,0h0l-7.15-7.45a7.66,7.66,0,0,1,0-10.54,7,7,0,0,1,10.13,0l2.09,2.19,16.4-17.08a7,7,0,0,1,10.12,0Zm0,59.56a7.65,7.65,0,0,1,0,10.52l0,0-21.46,22.33a7,7,0,0,1-10.12,0h0l-7.15-7.44a7.68,7.68,0,0,1,0-10.55,7,7,0,0,1,10.13,0l2.09,2.19,16.4-17.07a7,7,0,0,1,10.12,0Z" transform="translate(-68.51 -1)"/></svg>