<svg id="Layer_1" data-name="Layer 1" xmlns="http://www.w3.org/2000/svg" viewBox="0 0 1304.16 2257"><defs><style>.cls-1,.cls-2{fill:#fff;}.cls-2{fill-rule:evenodd;}</style></defs><path class="cls-1" d="M428,114.75c16.62,0,30.09,14.66,30.09,32.75V311.25c0,18.09-13.47,32.75-30.09,32.75H66.84c-16.62,0-30.1-14.66-30.1-32.75V147.5c0-18.09,13.48-32.75,30.1-32.75ZM66.84,82c-33.25,0-60.2,29.33-60.2,65.5V311.25c0,36.18,27,65.5,60.2,65.5H428c33.24,0,60.19-29.32,60.19-65.5V147.5c0-36.17-26.95-65.5-60.19-65.5Z" transform="translate(89.22 -82)"/><path class="cls-1" d="M407.37,286.69a8,8,0,0,1,7.7-8.19h15.41a8,8,0,0,1,7.71,8.19v16.37a8,8,0,0,1-7.71,8.19H415.07a8,8,0,0,1-7.7-8.19Zm0-65.5a8,8,0,0,1,7.7-8.19h15.41a8,8,0,0,1,7.71,8.19v16.37a8,8,0,0,1-7.71,8.19H415.07a8,8,0,0,1-7.7-8.19Zm-154.13,0A8,8,0,0,1,261,213h15.41a8,8,0,0,1,7.71,8.19v16.37a8,8,0,0,1-7.71,8.19H261a8,8,0,0,1-7.71-8.19Zm61.65,0A8,8,0,0,1,322.6,213h46.24a8,8,0,0,1,7.7,8.19v16.37a8,8,0,0,1-7.7,8.19H322.6a8,8,0,0,1-7.71-8.19Zm30.83,65.5a8,8,0,0,1,7.7-8.19h15.42a8,8,0,0,1,7.7,8.19v16.37a8,8,0,0,1-7.7,8.19H353.42a8,8,0,0,1-7.7-8.19Zm-154.13-65.5A8,8,0,0,1,199.3,213h15.41a8,8,0,0,1,7.71,8.19v16.37a8,8,0,0,1-7.71,8.19H199.3a8,8,0,0,1-7.71-8.19Zm-61.65,0a8,8,0,0,1,7.71-8.19h15.41a8,8,0,0,1,7.71,8.19v16.37a8,8,0,0,1-7.71,8.19H137.65a8,8,0,0,1-7.71-8.19Zm-61.65,0A8,8,0,0,1,76,213H91.41a8,8,0,0,1,7.71,8.19v16.37a8,8,0,0,1-7.71,8.19H76a8,8,0,0,1-7.71-8.19Zm339.08-65.5a8,8,0,0,1,7.7-8.19h15.41a8,8,0,0,1,7.71,8.19v16.37a8,8,0,0,1-7.71,8.19H415.07a8,8,0,0,1-7.7-8.19Zm-61.65,0a8,8,0,0,1,7.7-8.19h15.42a8,8,0,0,1,7.7,8.19v16.37a8,8,0,0,1-7.7,8.19H353.42a8,8,0,0,1-7.7-8.19Zm-61.65,0a8,8,0,0,1,7.7-8.19h15.42a8,8,0,0,1,7.7,8.19v16.37a8,8,0,0,1-7.7,8.19H291.77a8,8,0,0,1-7.7-8.19Zm-61.65,0a8,8,0,0,1,7.7-8.19h15.42a8,8,0,0,1,7.7,8.19v16.37a8,8,0,0,1-7.7,8.19H230.12a8,8,0,0,1-7.7-8.19Zm-61.65,0a8,8,0,0,1,7.7-8.19h15.42a8,8,0,0,1,7.7,8.19v16.37a8,8,0,0,1-7.7,8.19H168.47a8,8,0,0,1-7.7-8.19Zm-92.48,0A8,8,0,0,1,76,147.5h46.24a8,8,0,0,1,7.7,8.19v16.37a8,8,0,0,1-7.7,8.19H76a8,8,0,0,1-7.71-8.19Zm0,131A8,8,0,0,1,76,278.5H91.41a8,8,0,0,1,7.71,8.19v16.37a8,8,0,0,1-7.71,8.19H76a8,8,0,0,1-7.71-8.19Zm61.65,0a8,8,0,0,1,7.71-8.19H307.19a8,8,0,0,1,7.7,8.19v16.37a8,8,0,0,1-7.7,8.19H137.65a8,8,0,0,1-7.71-8.19Z" transform="translate(89.22 -82)"/><path class="cls-1" d="M929.3,311.47a7.35,7.35,0,0,0-7.47,0L789.05,388c-4.43,2.56-6.34,9.07-4.28,14.54a10,10,0,0,0,4.72,5.52l132.78,65.63a7.29,7.29,0,0,0,6.59,0l102.93-50.84v128.2c-9.78,0-17.71,9.8-17.71,21.88v43.76h53.12V573c0-12.08-7.93-21.88-17.71-21.88v-137l12.15-6c4.53-2.25,6.73-8.62,4.91-14.23a10.34,10.34,0,0,0-4.47-5.83Zm-3.73,140.3L815.06,397.19l110.51-63.73,110.5,63.73Z" transform="translate(89.22 -82)"/><path class="cls-1" d="M857.87,464.28c-4.58-2.13-9.68.73-11.41,6.38l-.21.78-8.85,37.19c-1.28,5.41,1,11.14,5.21,13.23l79.66,39.38a7.29,7.29,0,0,0,6.59,0l79.67-39.38c4.23-2.09,6.49-7.82,5.2-13.23l-8.85-37.19c-1.38-5.8-6.3-9.12-11-7.42l-.62.26-67.7,31.38Zm-1.21,41,3.9-16.36,61.89,28.68a7.3,7.3,0,0,0,6.23,0l61.89-28.68,3.9,16.36-68.9,34-68.91-34Z" transform="translate(89.22 -82)"/><path class="cls-1" d="M227.29,592.93a9.83,9.83,0,0,1,14.29,0l0,0L302.21,656a10.81,10.81,0,0,1,0,14.86v0L100.18,881a10,10,0,0,1-3.39,2.31l-101,42a10,10,0,0,1-13.13-5.86,10.92,10.92,0,0,1,0-7.8L23.05,806.62a10.46,10.46,0,0,1,2.22-3.53Zm-19,49.47,46.33,48.19,26.12-27.17-46.32-48.19Zm32.05,63.05L194,657.26,62.73,793.86V800h10.1a10.31,10.31,0,0,1,10.1,10.51V821H93a10.31,10.31,0,0,1,10.1,10.51v10.51h5.92ZM43.17,814.2,41,816.43l-30.87,80.3,77.19-32.11,2.14-2.23a10.49,10.49,0,0,1-6.56-9.83V842.05H72.83a10.31,10.31,0,0,1-10.1-10.51V821H52.62A10.11,10.11,0,0,1,43.17,814.2Z" transform="translate(89.22 -82)"/><path class="cls-1" d="M815,856.47c0-10.88-8.48-19.7-18.94-19.7s-18.94,8.82-18.94,19.7v216.69a19.88,19.88,0,0,0,9.55,17.1l132.56,78.79a18.56,18.56,0,0,0,25.66-8,20.13,20.13,0,0,0-6.88-26.23l-123-73.13Z" transform="translate(89.22 -82)"/><path class="cls-1" d="M815,1349c167.33,0,303-141.12,303-315.19S982.28,718.58,815,718.58,512,859.69,512,1033.76,647.61,1349,815,1349Zm265.11-315.19c0,152.31-118.69,275.79-265.11,275.79s-265.12-123.48-265.12-275.79S668.53,758,815,758,1080.06,881.45,1080.06,1033.76Z" transform="translate(89.22 -82)"/><path class="cls-1" d="M-89.22,1413.38c0-33.12,25.81-60,57.64-60H199c31.84,0,57.64,26.84,57.64,60v359.77c0,33.12-25.8,60-57.64,60H-31.58c-31.83,0-57.64-26.85-57.64-60Zm57.64,15v60c0,8.28,6.45,15,14.41,15H184.58c8,0,14.41-6.71,14.41-15v-60c0-8.28-6.45-15-14.41-15H-17.17C-25.13,1413.38-31.58,1420.09-31.58,1428.37Zm0,119.92v30c0,8.27,6.45,15,14.41,15H11.65c8,0,14.41-6.72,14.41-15v-30c0-8.27-6.45-15-14.41-15H-17.17C-25.13,1533.3-31.58,1540-31.58,1548.29Zm14.41,75c-8,0-14.41,6.71-14.41,15v30c0,8.28,6.45,15,14.41,15H11.65c8,0,14.41-6.71,14.41-15v-30c0-8.28-6.45-15-14.41-15Zm-14.41,104.93v30c0,8.28,6.45,15,14.41,15H11.65c8,0,14.41-6.71,14.41-15v-30c0-8.28-6.45-15-14.41-15H-17.17C-25.13,1713.19-31.58,1719.9-31.58,1728.18ZM69.3,1533.3c-8,0-14.42,6.72-14.42,15v30c0,8.27,6.46,15,14.42,15H98.12c8,0,14.41-6.72,14.41-15v-30c0-8.27-6.45-15-14.41-15ZM54.88,1638.24v30c0,8.28,6.46,15,14.42,15H98.12c8,0,14.41-6.71,14.41-15v-30c0-8.28-6.45-15-14.41-15H69.3C61.34,1623.25,54.88,1630,54.88,1638.24Zm14.42,75c-8,0-14.42,6.71-14.42,15v30c0,8.28,6.46,15,14.42,15H98.12c8,0,14.41-6.71,14.41-15v-30c0-8.28-6.45-15-14.41-15Zm72.05-164.9v30c0,8.27,6.45,15,14.41,15h28.82c8,0,14.41-6.72,14.41-15v-30c0-8.27-6.45-15-14.41-15H155.76C147.8,1533.3,141.35,1540,141.35,1548.29Zm14.41,75c-8,0-14.41,6.71-14.41,15v119.92c0,8.28,6.45,15,14.41,15h28.82c8,0,14.41-6.71,14.41-15V1638.24c0-8.28-6.45-15-14.41-15Z" transform="translate(89.22 -82)"/><path class="cls-1" d="M1090.5,2116.28a13,13,0,0,1,0,17.79l0,0L1018,2209.55a11.77,11.77,0,0,1-17.1,0l0,0-36.27-37.73a13,13,0,0,1,0-17.81,11.77,11.77,0,0,1,17.12,0l27.71,28.85,64-66.58a11.76,11.76,0,0,1,17.1,0Z" transform="translate(89.22 -82)"/><path class="cls-1" d="M912.67,1936.52a12.35,12.35,0,0,1,12.09,12.58v12.58h193.45V1949.1a12.1,12.1,0,1,1,24.18,0v12.58h24.18c26.71,0,48.37,22.52,48.37,50.31v276.7c0,27.79-21.66,50.31-48.37,50.31H876.39c-26.71,0-48.36-22.52-48.36-50.31V2012c0-27.79,21.65-50.31,48.36-50.31h24.19V1949.1A12.34,12.34,0,0,1,912.67,1936.52Zm-60.46,100.62v251.55c0,13.89,10.83,25.16,24.18,25.16h290.18c13.36,0,24.18-11.27,24.18-25.16V2037.14Z" transform="translate(89.22 -82)"/><path class="cls-2" d="M121.26,2204.42a9.34,9.34,0,0,1,9.15-9.52H295.2a9.53,9.53,0,0,1,0,19H130.41A9.35,9.35,0,0,1,121.26,2204.42Zm0-76.18a9.34,9.34,0,0,1,9.15-9.52H295.2a9.53,9.53,0,0,1,0,19H130.41A9.34,9.34,0,0,1,121.26,2128.24Zm0-76.19a9.34,9.34,0,0,1,9.15-9.52H295.2a9.53,9.53,0,0,1,0,19H130.41A9.35,9.35,0,0,1,121.26,2052.05Zm-21-25.79a9.81,9.81,0,0,1,0,13.47v0l-27.47,28.57a8.92,8.92,0,0,1-13,0v0l-9.16-9.52a9.81,9.81,0,0,1,0-13.49,8.93,8.93,0,0,1,13,0h0l2.67,2.8,21-21.85a8.91,8.91,0,0,1,13,0Zm0,76.19a9.81,9.81,0,0,1,0,13.47h0L72.81,2144.5a8.9,8.9,0,0,1-13,0v0L50.69,2135a9.8,9.8,0,0,1,0-13.48,8.92,8.92,0,0,1,13,0l2.67,2.8,21-21.85a8.92,8.92,0,0,1,13,0Zm0,76.19a9.8,9.8,0,0,1,0,13.46v0l-27.47,28.57a8.92,8.92,0,0,1-13,0v0l-9.16-9.52a9.81,9.81,0,0,1,0-13.49,8.93,8.93,0,0,1,13,0l2.67,2.8,21-21.84a8.9,8.9,0,0,1,13,0Z" transform="translate(89.22 -82)"/></svg>